<?xml version="1.0" standalone="no"?>
<!DOCTYPE svg PUBLIC "-//W3C//DTD SVG 20010904//EN"
 "http://www.w3.org/TR/2001/REC-SVG-20010904/DTD/svg10.dtd">
<svg version="1.0" xmlns="http://www.w3.org/2000/svg"
 width="700.000000pt" height="728.000000pt" viewBox="0 0 700.000000 728.000000"
 preserveAspectRatio="xMidYMid meet">
<metadata>
Created by potrace 1.13, written by Peter Selinger 2001-2015
</metadata>
<g transform="translate(0.000000,728.000000) scale(0.100000,-0.100000)"
fill="#000000" stroke="none">
<path d="M2600 7170 l0 -115 -118 0 -117 0 -84 -42 c-46 -23 -88 -40 -94 -36
-5 3 -22 34 -38 69 -15 35 -31 64 -35 64 -9 0 1 -150 15 -227 6 -32 20 -105
31 -163 11 -58 20 -124 20 -148 0 -59 128 -391 169 -438 17 -19 31 -38 31 -42
0 -14 -72 -64 -128 -88 -31 -14 -71 -31 -88 -39 -22 -9 -33 -24 -43 -54 -7
-23 -19 -45 -27 -48 -38 -14 -81 -129 -105 -282 -18 -120 -25 -132 -118 -201
-148 -109 -299 -279 -321 -360 -6 -21 -11 -88 -12 -149 -1 -98 -3 -111 -17
-106 -62 25 -141 16 -177 -20 -19 -20 -24 -34 -24 -79 l0 -54 -51 19 c-28 11
-73 24 -99 30 -87 19 -224 125 -250 195 -14 36 -12 143 5 264 35 245 30 318
-16 228 -12 -23 -32 -58 -45 -78 -13 -19 -50 -98 -83 -174 -42 -98 -71 -151
-98 -179 -50 -51 -151 -123 -185 -131 -16 -3 -28 -10 -28 -14 0 -4 76 -84 170
-177 111 -111 170 -177 169 -190 0 -13 -17 -31 -47 -50 -50 -32 -64 -63 -37
-85 23 -19 19 -33 -25 -83 -95 -108 -273 -139 -485 -86 -50 13 -163 7 -193
-10 -20 -11 -24 -9 83 -35 87 -20 177 -67 325 -167 178 -120 258 -149 421
-149 86 0 392 -81 596 -158 84 -31 153 -59 153 -62 0 -7 -199 -135 -323 -207
-112 -66 -281 -188 -331 -242 l-30 -31 25 0 c13 0 40 5 60 10 20 6 74 12 120
15 46 2 100 9 119 14 33 10 37 9 72 -27 l38 -37 -29 -36 c-16 -19 -48 -48 -70
-64 -36 -24 -50 -28 -99 -26 -57 2 -57 2 -108 -51 -27 -29 -76 -92 -108 -139
l-58 -87 -9 -116 c-9 -128 -4 -153 39 -199 81 -86 160 -69 84 18 -55 62 -95
141 -88 171 8 32 43 33 52 0 6 -24 7 -24 87 32 45 30 118 72 162 93 44 21 92
50 105 65 14 14 40 33 59 41 30 13 36 13 49 0 8 -9 14 -33 14 -56 0 -22 3 -43
9 -46 16 -11 -3 -57 -35 -86 -25 -23 -37 -27 -63 -23 -23 4 -37 1 -49 -11 -17
-16 -18 -16 -31 0 -7 10 -10 21 -8 26 3 4 1 10 -4 14 -6 3 -8 12 -4 20 3 8 1
15 -5 15 -6 0 -12 -26 -15 -57 -7 -77 -28 -163 -48 -194 -27 -40 -77 -144
-108 -222 -33 -82 -59 -206 -91 -432 -26 -185 -66 -412 -87 -485 -8 -30 -28
-79 -44 -107 -16 -29 -29 -60 -29 -70 0 -9 -23 -40 -51 -67 -28 -28 -72 -80
-98 -115 -46 -66 -114 -128 -276 -256 -107 -84 -137 -133 -136 -219 0 -31 5
-74 11 -96 9 -34 15 -40 48 -47 57 -12 171 -7 241 12 65 17 220 89 323 152 37
22 60 43 64 59 7 26 -3 25 123 9 34 -4 50 1 105 36 l66 41 0 61 c0 43 5 66 17
79 15 17 15 20 1 34 -12 13 -13 24 -6 61 6 24 7 84 4 131 -9 127 -7 172 9 205
8 17 15 43 15 58 0 15 4 30 9 34 5 3 17 29 27 57 30 92 103 197 224 324 80 83
127 141 150 186 l34 66 81 4 c88 5 93 7 455 149 433 169 598 192 776 108 197
-93 313 -379 342 -839 l7 -115 32 1 c37 2 40 4 328 189 l30 20 -35 -42 c-19
-22 -69 -80 -110 -127 -96 -112 -203 -265 -196 -282 7 -19 31 -8 101 46 65 52
122 82 230 125 97 38 150 89 125 120 -20 24 -3 32 82 39 80 7 85 8 153 60 38
30 104 75 145 102 41 26 80 54 86 62 9 12 27 14 92 8 69 -5 85 -10 110 -34 16
-15 52 -49 80 -75 66 -61 165 -212 229 -347 67 -140 73 -157 73 -187 0 -25 11
-69 32 -122 6 -16 5 -26 -2 -31 -7 -5 -8 -15 -2 -31 19 -49 32 -96 32 -114 0
-11 -11 -67 -25 -125 -50 -209 -54 -272 -21 -309 26 -29 148 -56 251 -56 94 0
161 18 218 57 46 33 81 122 65 168 -3 8 -11 53 -17 100 -6 47 -22 130 -36 185
-31 124 -31 133 0 145 29 11 42 36 165 311 137 306 223 534 275 729 25 96 60
204 77 239 29 61 31 63 48 45 30 -31 146 -252 189 -359 21 -55 46 -135 55
-177 21 -103 21 -302 0 -375 -35 -121 34 -78 100 62 44 92 80 206 108 346 21
104 23 135 20 359 -7 510 -7 555 1 574 7 18 10 16 31 -15 45 -67 117 -208 147
-289 56 -154 69 -167 124 -119 50 44 158 267 191 394 20 75 27 127 28 210 1
107 0 112 -36 186 -45 94 -231 415 -328 568 -74 116 -291 433 -317 463 -17 19
-13 38 24 113 33 67 35 187 4 297 -68 248 -265 694 -396 895 -101 155 -340
425 -516 581 -160 144 -633 513 -651 509 -7 -1 -12 4 -13 12 0 14 -77 79 -162
136 -103 69 -240 105 -400 105 -121 0 -203 -12 -358 -49 -66 -16 -169 -39
-228 -51 -60 -12 -168 -39 -240 -60 -74 -21 -169 -41 -214 -45 -77 -7 -86 -6
-137 19 -33 16 -77 51 -113 89 -65 70 -87 123 -98 242 -4 39 -18 93 -31 122
-12 28 -30 78 -39 110 -38 132 -127 419 -136 433 -5 9 -9 -29 -9 -100z m-70
-164 c0 -6 21 -23 45 -38 36 -22 45 -33 45 -55 0 -21 -7 -31 -27 -40 -37 -15
-113 -25 -188 -25 -104 0 -103 -1 -110 32 -4 17 -11 28 -16 25 -5 -4 -6 1 -3
9 3 9 10 13 15 10 5 -3 9 1 9 9 0 20 46 57 80 64 16 3 27 9 25 13 -3 5 3 7 12
6 9 -2 30 0 47 4 37 8 66 2 66 -14z m714 -959 c91 -42 177 -150 175 -220 0
-18 -9 -45 -20 -62 -11 -16 -22 -38 -25 -48 -5 -13 -13 -17 -28 -13 -11 3 -27
6 -33 6 -7 0 -13 7 -13 15 0 10 -10 15 -31 15 -16 0 -28 -4 -25 -9 4 -5 -3 -7
-14 -4 -11 3 -28 18 -37 33 -9 17 -22 26 -32 23 -9 -2 -34 12 -56 32 l-40 35
-3 -24 c-2 -14 4 -39 13 -57 l17 -32 -26 7 c-15 4 -26 2 -26 -4 0 -5 -8 -10
-17 -10 -16 0 -16 -2 -3 -11 11 -8 8 -9 -15 -4 -16 4 -32 11 -33 16 -2 5 -7 7
-12 4 -4 -3 -29 5 -55 16 -27 12 -65 22 -87 24 -21 1 -45 8 -53 15 -11 9 -15
9 -15 1 0 -7 -4 -9 -10 -6 -5 3 -10 2 -10 -3 0 -15 -41 -2 -47 14 -3 8 -12 14
-20 14 -12 0 -14 9 -9 43 3 23 5 43 5 44 1 1 26 17 58 37 32 20 76 38 102 42
30 4 57 16 76 34 75 69 241 86 349 37z m-875 -232 c-14 -8 -52 -53 -85 -101
-32 -47 -75 -109 -94 -138 -38 -55 -70 -72 -70 -37 0 11 16 35 35 54 39 38 45
53 14 37 -37 -20 -31 -4 20 58 49 59 116 112 163 132 35 14 46 11 17 -5z
m1230 -57 c39 -19 87 -54 126 -92 67 -66 140 -169 131 -184 -3 -5 18 -20 48
-31 57 -24 104 -66 130 -118 l16 -32 -43 24 c-46 27 -96 36 -64 13 11 -8 23
-46 34 -103 9 -49 21 -93 26 -96 23 -16 -38 -199 -66 -199 -17 0 -93 114 -114
171 -9 24 -26 54 -37 67 -11 12 -20 37 -20 56 l-1 35 -29 -27 c-16 -15 -41
-44 -57 -65 l-27 -38 -7 56 c-7 56 -1 147 12 181 4 11 2 15 -7 12 -17 -5 -50
26 -50 48 0 8 -5 12 -10 9 -6 -3 -23 3 -39 14 -16 12 -33 21 -38 21 -4 0 -26
15 -48 34 -22 19 -51 43 -64 53 l-23 19 29 60 c17 32 36 77 43 99 7 22 14 43
17 47 7 13 66 -3 132 -34z m-1186 -22 c11 4 17 1 17 -9 0 -9 8 -15 18 -14 25
1 219 -97 198 -101 -19 -4 -21 -23 -4 -40 9 -9 10 -15 2 -20 -14 -9 -24 -51
-14 -57 17 -11 -2 -45 -26 -45 -13 0 -24 -5 -24 -11 0 -5 -4 -7 -10 -4 -5 3
-10 1 -10 -4 0 -6 -4 -11 -10 -11 -5 0 -10 4 -10 9 0 5 -16 33 -35 62 -19 30
-35 61 -35 71 0 20 -65 87 -98 99 -44 17 -53 12 -47 -24 6 -29 2 -39 -28 -70
-71 -76 -74 -30 -6 79 41 65 89 110 100 93 3 -5 13 -7 22 -3z m899 -200 c26
-3 88 -52 88 -71 1 -15 77 -69 148 -104 55 -28 83 -53 71 -66 -2 -2 -27 1 -54
6 -84 17 -125 20 -125 11 0 -21 -208 23 -230 48 -3 3 -24 11 -46 18 -50 14
-60 26 -69 73 -6 33 -4 39 27 62 49 37 61 39 190 23z m-807 -116 c23 -22 45
-37 50 -33 4 5 5 2 1 -4 -4 -7 -16 -13 -27 -13 -11 0 -18 -4 -14 -9 7 -12 -51
-41 -81 -41 -12 0 -25 -6 -28 -12 -5 -10 -7 -10 -12 -1 -4 10 -9 9 -21 -2 -19
-19 -47 -19 -67 0 -8 8 -19 15 -25 15 -18 0 16 71 51 107 54 55 112 53 173 -7z
m-581 -32 c-4 -7 -26 -35 -49 -63 -68 -81 -161 -226 -183 -285 l-21 -55 0 50
c0 30 9 73 23 108 29 70 13 71 -27 1 -16 -27 -26 -41 -23 -31 8 25 1 21 -20
-10 -9 -15 -25 -69 -34 -120 -14 -80 -15 -106 -3 -198 7 -58 17 -123 23 -143
11 -40 13 -68 5 -60 -13 13 -55 248 -55 308 0 70 16 143 44 203 25 52 127 159
226 239 83 65 109 81 94 56z m2196 -403 c36 -52 33 -81 -8 -92 -15 -3 -40 -15
-57 -25 -16 -10 -35 -18 -40 -18 -20 0 -4 74 19 92 16 13 17 18 6 18 -18 0
-22 50 -5 62 26 19 55 7 85 -37z m-2021 -615 c0 -22 -1 -23 -8 -5 -7 17 -11
13 -29 -29 -12 -27 -22 -54 -22 -60 0 -7 -16 -57 -36 -112 -20 -54 -38 -107
-41 -117 -3 -10 -12 -16 -22 -13 -63 17 -74 17 -63 3 12 -15 5 -30 -9 -21 -13
8 -11 61 5 97 13 31 82 107 98 107 4 0 4 -10 -1 -22 -5 -13 -5 -32 -1 -43 7
-18 9 -17 15 10 4 17 13 44 21 62 8 17 14 38 14 47 0 19 38 117 52 134 15 17
28 -2 27 -38z m-894 -325 c34 -44 127 -143 206 -220 162 -158 211 -212 129
-145 -132 109 -373 356 -431 443 -32 49 -59 94 -59 100 0 7 -3 23 -6 37 -3 14
18 -11 46 -55 29 -44 81 -116 115 -160z m1357 88 l34 -123 -30 -4 c-97 -15
-126 -17 -126 -7 0 6 3 10 8 10 19 -3 23 2 11 17 -7 9 -12 32 -11 51 2 19 -1
32 -6 29 -6 -3 -12 5 -14 19 -3 13 0 26 6 28 7 3 7 9 -3 20 -10 12 -10 17 -2
17 8 0 7 6 -3 16 -17 17 -20 25 -8 23 19 -3 42 2 41 9 -3 17 3 20 35 19 l33
-1 35 -123z m-275 -382 c-13 -16 -32 -60 -42 -98 -10 -37 -27 -80 -37 -95 -10
-14 -18 -33 -18 -41 0 -9 -4 -18 -9 -22 -5 -3 -21 -30 -35 -60 -14 -31 -32
-63 -41 -71 -8 -9 -13 -20 -10 -25 4 -5 -1 -9 -9 -9 -9 0 -16 -4 -16 -10 0
-17 -38 -11 -42 7 -3 14 -10 11 -43 -18 -22 -20 -67 -52 -100 -72 -33 -19 -74
-50 -90 -67 -30 -30 -108 -90 -119 -90 -13 0 -5 53 18 112 35 93 79 177 126
239 l41 54 -48 -52 c-49 -53 -87 -118 -123 -211 -30 -78 -88 -187 -110 -207
-11 -10 -17 -22 -13 -28 3 -5 2 -7 -4 -4 -5 3 -22 -6 -38 -21 -16 -15 -33 -26
-37 -25 -5 2 -8 -4 -8 -13 0 -8 -5 -12 -10 -9 -6 4 -26 -5 -45 -20 -19 -14
-35 -23 -35 -20 0 28 160 277 247 385 71 88 249 262 348 341 57 45 136 89 160
89 3 0 -5 -24 -16 -52 -12 -29 -24 -60 -27 -68 -8 -23 30 28 67 88 39 65 57
84 96 105 44 24 50 21 22 -12z m-368 -647 c-13 -27 -34 -67 -49 -89 -14 -22
-32 -53 -40 -70 -15 -31 -24 -43 -50 -74 -18 -21 -38 -53 -86 -142 -20 -36
-42 -66 -50 -66 -7 0 -12 5 -11 11 1 6 -4 10 -12 8 -10 -2 -12 4 -7 25 5 21 4
24 -4 13 -5 -8 -10 -10 -10 -4 0 7 -11 15 -24 18 -24 6 -44 57 -25 64 5 2 9
10 9 18 0 8 4 14 8 14 12 0 33 50 27 61 -4 5 -2 9 4 9 5 0 24 20 41 45 17 25
26 45 19 45 -6 0 13 17 42 37 30 20 74 51 98 70 24 18 48 33 52 33 5 0 18 9
29 20 11 11 27 20 35 20 8 0 16 6 16 13 1 6 4 2 6 -9 2 -12 -6 -44 -18 -70z"/>
</g>
</svg>
